<svg width="20" height="20" viewBox="0 0 20 20" fill="none" xmlns="http://www.w3.org/2000/svg">
<path d="M5.83337 14.1667L5.83337 10.8333" stroke="#898989" stroke-width="1.5" stroke-linecap="round"/>
<path d="M10 14.1667L10 5.83333" stroke="#898989" stroke-width="1.5" stroke-linecap="round"/>
<path d="M14.1667 14.1667L14.1667 9.16666" stroke="#898989" stroke-width="1.5" stroke-linecap="round"/>
<path d="M2.08337 9.99999C2.08337 6.26804 2.08337 4.40207 3.24274 3.2427C4.40211 2.08333 6.26809 2.08333 10 2.08333C13.732 2.08333 15.598 2.08333 16.7573 3.2427C17.9167 4.40207 17.9167 6.26804 17.9167 9.99999C17.9167 13.7319 17.9167 15.5979 16.7573 16.7573C15.598 17.9167 13.732 17.9167 10 17.9167C6.26809 17.9167 4.40211 17.9167 3.24274 16.7573C2.08337 15.5979 2.08337 13.7319 2.08337 9.99999Z" stroke="#898989" stroke-width="1.5" stroke-linejoin="round"/>
</svg>
