<svg width="20" height="20" viewBox="0 0 20 20" fill="none" xmlns="http://www.w3.org/2000/svg">
<path d="M4.28563 11.6667C3.68104 10.6735 3.33325 9.50979 3.33325 8.26571C3.33325 4.62115 6.31802 1.66666 9.99992 1.66666C13.6818 1.66666 16.6666 4.62115 16.6666 8.26571C16.6666 9.50979 16.3188 10.6735 15.7142 11.6667" stroke="#898989" stroke-width="1.5" stroke-linecap="round"/>
<path d="M11.6665 8.33332C11.1561 8.86932 10.5924 9.16666 9.99984 9.16666C9.40725 9.16666 8.84356 8.86932 8.33317 8.33332" stroke="#898989" stroke-width="1.5" stroke-linecap="round"/>
<path d="M6.15223 14.2485C6.07567 14.018 6.03739 13.9027 6.04185 13.8094C6.05129 13.6119 6.17579 13.4385 6.35948 13.3671C6.44633 13.3333 6.56738 13.3333 6.80948 13.3333H13.1902C13.4323 13.3333 13.5533 13.3333 13.6402 13.3671C13.8239 13.4385 13.9484 13.6119 13.9578 13.8094C13.9623 13.9027 13.924 14.018 13.8474 14.2485C13.706 14.6745 13.6352 14.8875 13.5261 15.06C13.2975 15.4213 12.9391 15.6806 12.5253 15.784C12.3278 15.8333 12.104 15.8333 11.6566 15.8333H8.34306C7.89563 15.8333 7.67192 15.8333 7.47437 15.784C7.06053 15.6806 6.70218 15.4213 6.47359 15.06C6.36446 14.8875 6.29372 14.6745 6.15223 14.2485Z" stroke="#898989" stroke-width="1.5"/>
<path d="M12.5 15.8333L12.3922 16.3722C12.2744 16.9614 12.2155 17.256 12.0834 17.4888C11.8793 17.8488 11.5485 18.1199 11.1555 18.2495C10.9013 18.3333 10.6009 18.3333 10 18.3333C9.39912 18.3333 9.09868 18.3333 8.84449 18.2495C8.45146 18.1199 8.1207 17.8488 7.91656 17.4888C7.78453 17.256 7.72561 16.9614 7.60777 16.3722L7.5 15.8333" stroke="#898989" stroke-width="1.5"/>
<path d="M10 12.9167V9.16666" stroke="#898989" stroke-width="1.5" stroke-linecap="round" stroke-linejoin="round"/>
</svg>
