<svg width="20" height="20" viewBox="0 0 20 20" fill="none" xmlns="http://www.w3.org/2000/svg">
<path d="M15 1.66667V3.33334M5 1.66667V3.33334" stroke="#111111" stroke-width="1.5" stroke-linecap="round" stroke-linejoin="round"/>
<path d="M2.08337 10.2027C2.08337 6.57161 2.08337 4.75607 3.12681 3.62803C4.17024 2.5 5.84962 2.5 9.20837 2.5H10.7917C14.1505 2.5 15.8298 2.5 16.8733 3.62803C17.9167 4.75607 17.9167 6.57161 17.9167 10.2027V10.6306C17.9167 14.2617 17.9167 16.0773 16.8733 17.2053C15.8298 18.3333 14.1505 18.3333 10.7917 18.3333H9.20837C5.84962 18.3333 4.17024 18.3333 3.12681 17.2053C2.08337 16.0773 2.08337 14.2617 2.08337 10.6306V10.2027Z" stroke="#111111" stroke-width="1.5" stroke-linecap="round" stroke-linejoin="round"/>
<path d="M2.5 6.66667H17.5" stroke="#111111" stroke-width="1.5" stroke-linecap="round" stroke-linejoin="round"/>
</svg>
