<svg width="330" height="151" viewBox="0 0 330 151" fill="none" xmlns="http://www.w3.org/2000/svg">
<path opacity="0.1" d="M0.912231 111.918V150.548H329.999V29.0217H269.269C264.85 29.0217 261.269 25.44 261.269 21.0217V9.99414C261.269 5.57586 257.687 1.99414 253.269 1.99414H199.029C194.611 1.99414 191.029 5.57586 191.029 9.99414V53.2043C191.029 57.6226 187.447 61.2043 183.029 61.2043H140.001C135.583 61.2043 132.001 57.6226 132.001 53.2043V44.423C132.001 40.0047 128.419 36.423 124.001 36.423H70.6372C66.2189 36.423 62.6372 40.0047 62.6372 44.423V103.918C62.6372 108.336 59.0555 111.918 54.6372 111.918H0.912231Z" fill="url(#paint0_linear_301_248)"/>
<path d="M0.912231 111.918H54.6372C59.0555 111.918 62.6372 108.336 62.6372 103.918V44.3572C62.6372 39.9389 66.2189 36.3572 70.6372 36.3572H124.456C128.874 36.3572 132.456 39.9389 132.456 44.3572V53.733C132.456 58.1513 136.038 61.733 140.456 61.733H183.029C187.447 61.733 191.029 58.1513 191.029 53.733V8.93685C191.029 4.51857 194.611 0.936844 199.029 0.936844H253.269C257.687 0.936844 261.269 4.51857 261.269 8.93684V21.561C261.269 25.9793 264.85 29.561 269.269 29.561H329.999" stroke="#12B76A" stroke-width="1.5"/>
<path opacity="0.1" d="M53.8108 145.336H6.12429C3.24575 145.336 0.912231 147.669 0.912231 150.548H329.999V132.851H310.321H263.116C258.895 132.851 255.473 129.43 255.473 125.209C255.473 120.988 252.051 117.566 247.831 117.566H195.068C191.431 117.566 188.483 114.618 188.483 110.982C188.483 107.346 185.536 104.398 181.899 104.398H138.536C134.118 104.398 130.536 107.979 130.536 112.398V120.589C130.536 125.008 126.954 128.589 122.536 128.589H69.8107C65.3925 128.589 61.8107 132.171 61.8107 136.589V137.336C61.8107 141.754 58.229 145.336 53.8108 145.336Z" fill="url(#paint1_linear_301_248)"/>
<path d="M0.912231 145.09H53.8108C58.229 145.09 61.8107 141.508 61.8107 137.09V136.59C61.8107 132.171 65.3925 128.59 69.8107 128.59H122.536C126.954 128.59 130.536 125.008 130.536 120.59V112.026C130.536 107.607 134.118 104.026 138.536 104.026H181.713C185.452 104.026 188.483 107.057 188.483 110.796V110.796C188.483 114.535 191.515 117.567 195.254 117.567H247.831C252.051 117.567 255.473 120.988 255.473 125.209V125.209C255.473 129.43 258.895 132.852 263.116 132.852H329.999" stroke="#6941C6" stroke-width="1.5"/>
<defs>
<linearGradient id="paint0_linear_301_248" x1="227.164" y1="-136.771" x2="226.276" y2="262.225" gradientUnits="userSpaceOnUse">
<stop stop-color="#05D34B"/>
<stop offset="1" stop-color="#05D34B" stop-opacity="0"/>
</linearGradient>
<linearGradient id="paint1_linear_301_248" x1="224.134" y1="100.221" x2="224.116" y2="156.121" gradientUnits="userSpaceOnUse">
<stop stop-color="#6936F5"/>
<stop offset="1" stop-color="#6936F5" stop-opacity="0"/>
</linearGradient>
</defs>
</svg>
