<svg width="20" height="20" viewBox="0 0 20 20" fill="none" xmlns="http://www.w3.org/2000/svg">
<g clip-path="url(#clip0_130_58653)">
<path d="M18.3333 9.99999C18.3333 14.6024 14.6023 18.3333 9.99996 18.3333C5.39759 18.3333 1.66663 14.6024 1.66663 9.99999C1.66663 5.39762 5.39759 1.66666 9.99996 1.66666C14.6023 1.66666 18.3333 5.39762 18.3333 9.99999Z" stroke="#6941C6" stroke-width="1.5"/>
<path d="M11.5417 8.4398C11.5417 8.85402 11.8775 9.1898 12.2917 9.1898C12.7059 9.1898 13.0417 8.85402 13.0417 8.4398H11.5417ZM8.25 11.5605C8.25 11.1463 7.91421 10.8105 7.5 10.8105C7.08579 10.8105 6.75 11.1463 6.75 11.5605H8.25ZM10.75 5.83331C10.75 5.4191 10.4142 5.08331 10 5.08331C9.58579 5.08331 9.25 5.4191 9.25 5.83331L10.75 5.83331ZM9.25 14.1666C9.25 14.5809 9.58579 14.9166 10 14.9166C10.4142 14.9166 10.75 14.5809 10.75 14.1666H9.25ZM10 9.13013C9.21448 9.13013 8.8243 9.00386 8.6464 8.88476C8.53272 8.80865 8.45833 8.71011 8.45833 8.4398H6.95833C6.95833 9.09755 7.19645 9.71917 7.81193 10.1312C8.36319 10.5003 9.11885 10.6301 10 10.6301V9.13013ZM8.45833 8.4398C8.45833 8.27214 8.54945 8.05703 8.82304 7.85642C9.09618 7.65613 9.50986 7.50942 10 7.50942V6.00942C9.22449 6.00942 8.49233 6.23887 7.93605 6.64677C7.38023 7.05433 6.95833 7.67941 6.95833 8.4398H8.45833ZM10 7.50942C10.4901 7.50942 10.9038 7.65613 11.177 7.85642C11.4506 8.05703 11.5417 8.27214 11.5417 8.4398H13.0417C13.0417 7.67941 12.6198 7.05433 12.0639 6.64677C11.5077 6.23887 10.7755 6.00942 10 6.00942V7.50942ZM11.75 11.5605C11.75 11.8763 11.6271 12.0613 11.3833 12.2068C11.0941 12.3795 10.6228 12.4909 10 12.4909V13.9909C10.758 13.9909 11.5366 13.8623 12.1522 13.4948C12.8133 13.1002 13.25 12.4451 13.25 11.5605H11.75ZM10 12.4909C9.4383 12.4909 8.96344 12.3365 8.65062 12.1263C8.3331 11.9129 8.25 11.6986 8.25 11.5605H6.75C6.75 12.3505 7.22654 12.9764 7.81385 13.3712C8.40584 13.7691 9.18098 13.9909 10 13.9909V12.4909ZM10 10.6301C10.7915 10.6301 11.2363 10.75 11.4671 10.8996C11.6297 11.005 11.75 11.1619 11.75 11.5605H13.25C13.25 10.7589 12.9536 10.0756 12.2829 9.64086C11.6804 9.25033 10.8752 9.13013 10 9.13013V10.6301ZM10.75 6.75942L10.75 5.83331L9.25 5.83331L9.25 6.75942L10.75 6.75942ZM9.25 13.2409V14.1666H10.75V13.2409H9.25Z" fill="#6941C6"/>
</g>
<defs>
<clipPath id="clip0_130_58653">
<rect width="20" height="20" fill="white"/>
</clipPath>
</defs>
</svg>
