<svg width="20" height="20" viewBox="0 0 20 20" fill="none" xmlns="http://www.w3.org/2000/svg">
<path d="M2.91663 8.33333C2.91663 5.19064 2.91663 3.61929 3.95396 2.64298C4.99129 1.66667 6.66084 1.66667 9.99996 1.66667H10.6439C13.3616 1.66667 14.7204 1.66667 15.6641 2.33153C15.9344 2.52202 16.1745 2.74794 16.3769 3.00241C17.0833 3.89056 17.0833 5.16947 17.0833 7.72727V9.84849C17.0833 12.3178 17.0833 13.5525 16.6925 14.5385C16.0643 16.1238 14.7357 17.3743 13.0513 17.9655C12.0036 18.3333 10.6918 18.3333 8.06814 18.3333C6.56892 18.3333 5.81931 18.3333 5.22061 18.1232C4.25812 17.7853 3.49892 17.0708 3.13993 16.1649C2.91663 15.6014 2.91663 14.8959 2.91663 13.4849V8.33333Z" stroke="#898989" stroke-width="1.5" stroke-linejoin="round"/>
<path d="M17.0833 10C17.0833 11.5341 15.8397 12.7778 14.3056 12.7778C13.7507 12.7778 13.0966 12.6806 12.5572 12.8251C12.0779 12.9535 11.7035 13.3279 11.5751 13.8072C11.4306 14.3466 11.5278 15.0007 11.5278 15.5556C11.5278 17.0897 10.2841 18.3333 8.75 18.3333" stroke="#898989" stroke-width="1.5" stroke-linecap="round" stroke-linejoin="round"/>
<path d="M6.66663 5.83334H12.5" stroke="#898989" stroke-width="1.5" stroke-linecap="round" stroke-linejoin="round"/>
<path d="M6.66663 9.16667H9.16663" stroke="#898989" stroke-width="1.5" stroke-linecap="round" stroke-linejoin="round"/>
</svg>
