<svg width="60" height="62" viewBox="0 0 60 62" fill="none" xmlns="http://www.w3.org/2000/svg">
<circle opacity="0.1" cx="30" cy="30" r="30" fill="#111111"/>
<g filter="url(#filter0_d_130_58713)">
<circle cx="30" cy="29.9999" r="20" fill="#111111"/>
</g>
<path d="M35.6388 25.7359C35.5322 25.7359 35.4416 25.7146 35.367 25.6719C35.2924 25.6293 35.2337 25.5547 35.1911 25.4482L34.2637 23.2745L31.9291 22.2515C31.8225 22.2089 31.7479 22.1503 31.7052 22.0757C31.6626 22.0011 31.6413 21.9106 31.6413 21.804C31.6413 21.6975 31.6626 21.6069 31.7052 21.5323C31.7479 21.4577 31.8225 21.3991 31.9291 21.3565L34.2637 20.3655L35.1911 18.2877C35.2337 18.1811 35.2924 18.1066 35.367 18.0639C35.4416 18.0213 35.5322 18 35.6388 18C35.7454 18 35.836 18.0213 35.9107 18.0639C35.9853 18.1066 36.0439 18.1811 36.0865 18.2877L37.014 20.3655L39.3485 21.3565C39.4551 21.3991 39.5298 21.4577 39.5724 21.5323C39.615 21.6069 39.6364 21.6975 39.6364 21.804C39.6364 21.9106 39.615 22.0011 39.5724 22.0757C39.5298 22.1503 39.4551 22.2089 39.3485 22.2515L37.014 23.2745L36.0865 25.4482C36.0439 25.5547 35.9853 25.6293 35.9107 25.6719C35.836 25.7146 35.7454 25.7359 35.6388 25.7359ZM35.6388 41.2121C35.5535 41.2121 35.4683 41.1908 35.383 41.1482C35.2977 41.1056 35.2337 41.031 35.1911 40.9244L34.2637 38.8466L31.9611 37.8556C31.8545 37.813 31.7799 37.7544 31.7372 37.6798C31.6946 37.6052 31.6733 37.5147 31.6733 37.4081C31.6733 37.3016 31.6946 37.211 31.7372 37.1364C31.7799 37.0618 31.8545 37.0032 31.9611 36.9606L34.2637 35.9696L35.1911 33.7639C35.2337 33.6574 35.2924 33.5828 35.367 33.5402C35.4416 33.4976 35.5322 33.4762 35.6388 33.4762C35.7454 33.4762 35.836 33.4976 35.9107 33.5402C35.9853 33.5828 36.0439 33.6574 36.0865 33.7639L37.014 35.9696L39.3166 36.9606C39.4232 37.0032 39.4978 37.0618 39.5404 37.1364C39.5831 37.211 39.6044 37.3016 39.6044 37.4081C39.6044 37.5147 39.5831 37.6052 39.5404 37.6798C39.4978 37.7544 39.4232 37.813 39.3166 37.8556L37.014 38.8466L36.0865 40.9244C36.0439 41.031 35.9799 41.1056 35.8947 41.1482C35.8094 41.1908 35.7241 41.2121 35.6388 41.2121ZM25.9631 37.4698C25.7925 37.4698 25.6273 37.4219 25.4674 37.326C25.3075 37.2301 25.1849 37.0969 25.0996 36.9264L23.0209 32.483L18.5437 30.4692C18.3731 30.3839 18.2399 30.2614 18.1439 30.1015C18.048 29.9417 18 29.7765 18 29.6061C18 29.4356 18.048 29.2704 18.1439 29.1106C18.2399 28.9507 18.3731 28.8282 18.5437 28.743L23.0209 26.7291L25.0996 22.3177C25.1849 22.1259 25.3075 21.9821 25.4674 21.8862C25.6273 21.7903 25.7925 21.7423 25.9631 21.7423C26.1337 21.7423 26.2989 21.7903 26.4588 21.8862C26.6187 21.9821 26.7413 22.1153 26.8266 22.2857L28.9373 26.7291L33.3825 28.743C33.5744 28.8282 33.7183 28.9507 33.8143 29.1106C33.9102 29.2704 33.9582 29.4356 33.9582 29.6061C33.9582 29.7765 33.9102 29.9417 33.8143 30.1015C33.7183 30.2614 33.5744 30.3839 33.3825 30.4692L28.9373 32.483L26.8266 36.9264C26.7413 37.1182 26.6187 37.2567 26.4588 37.3419C26.2989 37.4272 26.1337 37.4698 25.9631 37.4698Z" fill="url(#paint0_linear_130_58713)"/>
<defs>
<filter id="filter0_d_130_58713" x="2" y="5.99994" width="56" height="56" filterUnits="userSpaceOnUse" color-interpolation-filters="sRGB">
<feFlood flood-opacity="0" result="BackgroundImageFix"/>
<feColorMatrix in="SourceAlpha" type="matrix" values="0 0 0 0 0 0 0 0 0 0 0 0 0 0 0 0 0 0 127 0" result="hardAlpha"/>
<feOffset dy="4"/>
<feGaussianBlur stdDeviation="4"/>
<feComposite in2="hardAlpha" operator="out"/>
<feColorMatrix type="matrix" values="0 0 0 0 0.054902 0 0 0 0 0.054902 0 0 0 0 0.054902 0 0 0 0.06 0"/>
<feBlend mode="normal" in2="BackgroundImageFix" result="effect1_dropShadow_130_58713"/>
<feBlend mode="normal" in="SourceGraphic" in2="effect1_dropShadow_130_58713" result="shape"/>
</filter>
<linearGradient id="paint0_linear_130_58713" x1="7.52428" y1="29.2387" x2="29.9462" y2="50.1384" gradientUnits="userSpaceOnUse">
<stop stop-color="#A1FF8B"/>
<stop offset="1" stop-color="#3FD1FF"/>
</linearGradient>
</defs>
</svg>
