<svg width="20" height="20" viewBox="0 0 20 20" fill="none" xmlns="http://www.w3.org/2000/svg">
<path d="M14.5747 7.18408C14.4967 7.18408 14.4304 7.16858 14.3758 7.13757C14.3212 7.10656 14.2783 7.05229 14.2471 6.97476L13.5684 5.39318L11.86 4.64891C11.782 4.6179 11.7273 4.57526 11.6961 4.52099C11.6649 4.46672 11.6493 4.40082 11.6493 4.3233C11.6493 4.24577 11.6649 4.17987 11.6961 4.1256C11.7273 4.07133 11.782 4.02869 11.86 3.99768L13.5684 3.27667L14.2471 1.76487C14.2783 1.68734 14.3212 1.63307 14.3758 1.60206C14.4304 1.57105 14.4967 1.55554 14.5747 1.55554C14.6527 1.55554 14.719 1.57105 14.7736 1.60206C14.8282 1.63307 14.8711 1.68734 14.9024 1.76487L15.581 3.27667L17.2895 3.99768C17.3675 4.02869 17.4221 4.07133 17.4533 4.1256C17.4845 4.17987 17.5001 4.24577 17.5001 4.3233C17.5001 4.40082 17.4845 4.46672 17.4533 4.52099C17.4221 4.57526 17.3675 4.6179 17.2895 4.64891L15.581 5.39318L14.9024 6.97476C14.8711 7.05229 14.8282 7.10656 14.7736 7.13757C14.719 7.16858 14.6527 7.18408 14.5747 7.18408ZM14.5747 18.4444C14.5123 18.4444 14.4499 18.4289 14.3875 18.3979C14.3251 18.3669 14.2783 18.3126 14.2471 18.2351L13.5684 16.7233L11.8834 16.0023C11.8054 15.9713 11.7508 15.9286 11.7195 15.8744C11.6883 15.8201 11.6727 15.7542 11.6727 15.6767C11.6727 15.5991 11.6883 15.5332 11.7195 15.479C11.7508 15.4247 11.8054 15.3821 11.8834 15.3511L13.5684 14.63L14.2471 13.0252C14.2783 12.9477 14.3212 12.8934 14.3758 12.8624C14.4304 12.8314 14.4967 12.8159 14.5747 12.8159C14.6527 12.8159 14.719 12.8314 14.7736 12.8624C14.8282 12.8934 14.8711 12.9477 14.9024 13.0252L15.581 14.63L17.2661 15.3511C17.3441 15.3821 17.3987 15.4247 17.4299 15.479C17.4611 15.5332 17.4767 15.5991 17.4767 15.6767C17.4767 15.7542 17.4611 15.8201 17.4299 15.8744C17.3987 15.9286 17.3441 15.9713 17.2661 16.0023L15.581 16.7233L14.9024 18.2351C14.8711 18.3126 14.8243 18.3669 14.7619 18.3979C14.6995 18.4289 14.6371 18.4444 14.5747 18.4444ZM7.49409 15.7216C7.36927 15.7216 7.24836 15.6867 7.13134 15.6169C7.01433 15.5471 6.92461 15.4502 6.86221 15.3262L5.34101 12.0932L2.0646 10.628C1.93978 10.5659 1.84227 10.4768 1.77206 10.3605C1.70185 10.2442 1.66675 10.124 1.66675 9.99999C1.66675 9.87594 1.70185 9.75577 1.77206 9.63948C1.84227 9.52319 1.93978 9.43403 2.0646 9.37201L5.34101 7.90673L6.86221 4.69706C6.92461 4.55751 7.01433 4.45285 7.13134 4.38307C7.24836 4.3133 7.36927 4.27841 7.49409 4.27841C7.6189 4.27841 7.73982 4.3133 7.85683 4.38307C7.97385 4.45285 8.06356 4.54976 8.12597 4.6738L9.67056 7.90673L12.9236 9.37201C13.064 9.43403 13.1693 9.52319 13.2395 9.63948C13.3097 9.75577 13.3448 9.87594 13.3448 9.99999C13.3448 10.124 13.3097 10.2442 13.2395 10.3605C13.1693 10.4768 13.064 10.5659 12.9236 10.628L9.67056 12.0932L8.12597 15.3262C8.06356 15.4657 7.97385 15.5665 7.85683 15.6285C7.73982 15.6905 7.6189 15.7216 7.49409 15.7216Z" fill="url(#paint0_linear_301_760)"/>
<defs>
<linearGradient id="paint0_linear_301_760" x1="7.89421" y1="26.3382" x2="25.468" y2="13.0267" gradientUnits="userSpaceOnUse">
<stop stop-color="#9358F7"/>
<stop offset="0.259732" stop-color="#7B78F2"/>
<stop offset="0.500607" stop-color="#6197EE"/>
<stop offset="0.766547" stop-color="#45CBE9"/>
<stop offset="1" stop-color="#10D7E2"/>
</linearGradient>
</defs>
</svg>
