<svg width="20" height="20" viewBox="0 0 20 20" fill="none" xmlns="http://www.w3.org/2000/svg">
<path d="M14.5746 7.18411C14.4966 7.18411 14.4303 7.16861 14.3757 7.1376C14.3211 7.10659 14.2782 7.05232 14.2469 6.97479L13.5683 5.39321L11.8598 4.64894C11.7818 4.61793 11.7272 4.57529 11.696 4.52102C11.6648 4.46675 11.6492 4.40085 11.6492 4.32333C11.6492 4.2458 11.6648 4.1799 11.696 4.12563C11.7272 4.07136 11.7818 4.02872 11.8598 3.99771L13.5683 3.2767L14.2469 1.7649C14.2782 1.68737 14.3211 1.6331 14.3757 1.60209C14.4303 1.57108 14.4966 1.55557 14.5746 1.55557C14.6526 1.55557 14.7189 1.57108 14.7735 1.60209C14.8281 1.6331 14.871 1.68737 14.9022 1.7649L15.5809 3.2767L17.2893 3.99771C17.3673 4.02872 17.4219 4.07136 17.4532 4.12563C17.4844 4.1799 17.5 4.2458 17.5 4.32333C17.5 4.40085 17.4844 4.46675 17.4532 4.52102C17.4219 4.57529 17.3673 4.61793 17.2893 4.64894L15.5809 5.39321L14.9022 6.97479C14.871 7.05232 14.8281 7.10659 14.7735 7.1376C14.7189 7.16861 14.6526 7.18411 14.5746 7.18411ZM14.5746 18.4445C14.5122 18.4445 14.4498 18.429 14.3874 18.3979C14.325 18.3669 14.2782 18.3127 14.2469 18.2351L13.5683 16.7233L11.8832 16.0023C11.8052 15.9713 11.7506 15.9287 11.7194 15.8744C11.6882 15.8201 11.6726 15.7542 11.6726 15.6767C11.6726 15.5992 11.6882 15.5333 11.7194 15.479C11.7506 15.4247 11.8052 15.3821 11.8832 15.3511L13.5683 14.6301L14.2469 13.0252C14.2782 12.9477 14.3211 12.8934 14.3757 12.8624C14.4303 12.8314 14.4966 12.8159 14.5746 12.8159C14.6526 12.8159 14.7189 12.8314 14.7735 12.8624C14.8281 12.8934 14.871 12.9477 14.9022 13.0252L15.5809 14.6301L17.2659 15.3511C17.3439 15.3821 17.3985 15.4247 17.4298 15.479C17.461 15.5333 17.4766 15.5992 17.4766 15.6767C17.4766 15.7542 17.461 15.8201 17.4298 15.8744C17.3985 15.9287 17.3439 15.9713 17.2659 16.0023L15.5809 16.7233L14.9022 18.2351C14.871 18.3127 14.8242 18.3669 14.7618 18.3979C14.6994 18.429 14.637 18.4445 14.5746 18.4445ZM7.49396 15.7216C7.36915 15.7216 7.24823 15.6867 7.13122 15.6169C7.0142 15.5472 6.92449 15.4502 6.86208 15.3262L5.34089 12.0933L2.06448 10.628C1.93966 10.566 1.84215 10.4768 1.77194 10.3605C1.70173 10.2442 1.66663 10.1241 1.66663 10C1.66663 9.87597 1.70173 9.7558 1.77194 9.63951C1.84215 9.52322 1.93966 9.43406 2.06448 9.37204L5.34089 7.90676L6.86208 4.69709C6.92449 4.55754 7.0142 4.45288 7.13122 4.3831C7.24823 4.31333 7.36915 4.27844 7.49396 4.27844C7.61878 4.27844 7.7397 4.31333 7.85671 4.3831C7.97372 4.45288 8.06344 4.54979 8.12584 4.67383L9.67044 7.90676L12.9235 9.37204C13.0639 9.43406 13.1692 9.52322 13.2394 9.63951C13.3096 9.7558 13.3447 9.87597 13.3447 10C13.3447 10.1241 13.3096 10.2442 13.2394 10.3605C13.1692 10.4768 13.0639 10.566 12.9235 10.628L9.67044 12.0933L8.12584 15.3262C8.06344 15.4657 7.97372 15.5665 7.85671 15.6286C7.7397 15.6906 7.61878 15.7216 7.49396 15.7216Z" fill="url(#paint0_linear_301_276)"/>
<defs>
<linearGradient id="paint0_linear_301_276" x1="7.89409" y1="26.3382" x2="25.4678" y2="13.0267" gradientUnits="userSpaceOnUse">
<stop stop-color="#9358F7"/>
<stop offset="0.259732" stop-color="#7B78F2"/>
<stop offset="0.500607" stop-color="#6197EE"/>
<stop offset="0.766547" stop-color="#45CBE9"/>
<stop offset="1" stop-color="#10D7E2"/>
</linearGradient>
</defs>
</svg>
