<svg width="20" height="20" viewBox="0 0 20 20" fill="none" xmlns="http://www.w3.org/2000/svg">
<path d="M14.5746 7.18408C14.4966 7.18408 14.4303 7.16858 14.3757 7.13757C14.3211 7.10656 14.2782 7.05229 14.2469 6.97476L13.5683 5.39318L11.8598 4.64891C11.7818 4.6179 11.7272 4.57526 11.696 4.52099C11.6648 4.46672 11.6492 4.40082 11.6492 4.3233C11.6492 4.24577 11.6648 4.17987 11.696 4.1256C11.7272 4.07133 11.7818 4.02869 11.8598 3.99768L13.5683 3.27667L14.2469 1.76487C14.2782 1.68734 14.3211 1.63307 14.3757 1.60206C14.4303 1.57105 14.4966 1.55554 14.5746 1.55554C14.6526 1.55554 14.7189 1.57105 14.7735 1.60206C14.8281 1.63307 14.871 1.68734 14.9022 1.76487L15.5809 3.27667L17.2893 3.99768C17.3673 4.02869 17.4219 4.07133 17.4532 4.1256C17.4844 4.17987 17.5 4.24577 17.5 4.3233C17.5 4.40082 17.4844 4.46672 17.4532 4.52099C17.4219 4.57526 17.3673 4.6179 17.2893 4.64891L15.5809 5.39318L14.9022 6.97476C14.871 7.05229 14.8281 7.10656 14.7735 7.13757C14.7189 7.16858 14.6526 7.18408 14.5746 7.18408ZM14.5746 18.4444C14.5122 18.4444 14.4498 18.4289 14.3874 18.3979C14.325 18.3669 14.2782 18.3126 14.2469 18.2351L13.5683 16.7233L11.8832 16.0023C11.8052 15.9713 11.7506 15.9286 11.7194 15.8744C11.6882 15.8201 11.6726 15.7542 11.6726 15.6767C11.6726 15.5991 11.6882 15.5332 11.7194 15.479C11.7506 15.4247 11.8052 15.3821 11.8832 15.3511L13.5683 14.63L14.2469 13.0252C14.2782 12.9477 14.3211 12.8934 14.3757 12.8624C14.4303 12.8314 14.4966 12.8159 14.5746 12.8159C14.6526 12.8159 14.7189 12.8314 14.7735 12.8624C14.8281 12.8934 14.871 12.9477 14.9022 13.0252L15.5809 14.63L17.2659 15.3511C17.3439 15.3821 17.3985 15.4247 17.4298 15.479C17.461 15.5332 17.4766 15.5991 17.4766 15.6767C17.4766 15.7542 17.461 15.8201 17.4298 15.8744C17.3985 15.9286 17.3439 15.9713 17.2659 16.0023L15.5809 16.7233L14.9022 18.2351C14.871 18.3126 14.8242 18.3669 14.7618 18.3979C14.6994 18.4289 14.637 18.4444 14.5746 18.4444ZM7.49396 15.7216C7.36915 15.7216 7.24823 15.6867 7.13122 15.6169C7.0142 15.5471 6.92449 15.4502 6.86208 15.3262L5.34089 12.0932L2.06448 10.628C1.93966 10.5659 1.84215 10.4768 1.77194 10.3605C1.70173 10.2442 1.66663 10.124 1.66663 9.99999C1.66663 9.87594 1.70173 9.75577 1.77194 9.63948C1.84215 9.52319 1.93966 9.43403 2.06448 9.37201L5.34089 7.90673L6.86208 4.69706C6.92449 4.55751 7.0142 4.45285 7.13122 4.38307C7.24823 4.3133 7.36915 4.27841 7.49396 4.27841C7.61878 4.27841 7.7397 4.3133 7.85671 4.38307C7.97372 4.45285 8.06344 4.54976 8.12584 4.6738L9.67044 7.90673L12.9235 9.37201C13.0639 9.43403 13.1692 9.52319 13.2394 9.63948C13.3096 9.75577 13.3447 9.87594 13.3447 9.99999C13.3447 10.124 13.3096 10.2442 13.2394 10.3605C13.1692 10.4768 13.0639 10.5659 12.9235 10.628L9.67044 12.0932L8.12584 15.3262C8.06344 15.4657 7.97372 15.5665 7.85671 15.6285C7.7397 15.6905 7.61878 15.7216 7.49396 15.7216Z" fill="url(#paint0_linear_301_14)"/>
<defs>
<linearGradient id="paint0_linear_301_14" x1="7.89409" y1="26.3382" x2="25.4678" y2="13.0267" gradientUnits="userSpaceOnUse">
<stop stop-color="#9358F7"/>
<stop offset="0.259732" stop-color="#7B78F2"/>
<stop offset="0.500607" stop-color="#6197EE"/>
<stop offset="0.766547" stop-color="#45CBE9"/>
<stop offset="1" stop-color="#10D7E2"/>
</linearGradient>
</defs>
</svg>
