<svg width="32" height="32" viewBox="0 0 32 32" fill="none" xmlns="http://www.w3.org/2000/svg">
<rect width="32" height="32" rx="4" fill="#12B76A"/>
<path fill-rule="evenodd" clip-rule="evenodd" d="M16.5111 6.17163C15.999 5.92521 15.3922 5.9451 14.8987 6.22448L8 10.1304V20.9682C8 21.5982 8.378 22.1715 8.97022 22.4397L15.0308 25.1848C15.4548 25.3769 15.9427 25.3908 16.3778 25.2233L22.7413 22.7734C23.9778 22.2973 24.1827 20.6955 23.103 19.945L17.9713 16.3778L23.3918 12.0301C24.3279 11.2793 24.1557 9.85059 23.0658 9.32609L16.5111 6.17163ZM10.4489 10.7205L16.5138 15.329L22.1641 10.797L15.7585 7.71434L10.4489 10.7205ZM9.77014 20.9191V12.3755L15.9953 17.1058L21.9481 21.2438L15.7529 23.6289L9.77014 20.9191Z" fill="white"/>
</svg>
