<svg width="20" height="20" viewBox="0 0 20 20" fill="none" xmlns="http://www.w3.org/2000/svg">
<path d="M9.99854 1.66669C7.49206 1.66669 5.86686 3.34918 3.9448 3.96244C3.16328 4.2118 2.77252 4.33647 2.61437 4.51223C2.45623 4.68798 2.40993 4.94481 2.31731 5.45847C1.32624 10.955 3.49246 16.0367 8.65862 18.0146C9.21369 18.2271 9.49123 18.3334 10.0013 18.3334C10.5113 18.3333 10.7888 18.2271 11.3439 18.0146C16.5097 16.0366 18.6739 10.955 17.6825 5.45846C17.5899 4.94472 17.5435 4.68785 17.3854 4.51209C17.2272 4.33634 16.8364 4.21173 16.055 3.96251C14.1322 3.34931 12.5051 1.66669 9.99854 1.66669Z" stroke="#12B76A" stroke-width="1.5" stroke-linecap="round" stroke-linejoin="round"/>
<path d="M7.5 10.8333C7.5 10.8333 8.33333 10.8333 9.16667 12.5C9.16667 12.5 11.8137 8.33333 14.1667 7.5" stroke="#12B76A" stroke-width="1.5" stroke-linecap="round" stroke-linejoin="round"/>
</svg>
