<svg width="20" height="20" viewBox="0 0 20 20" fill="none" xmlns="http://www.w3.org/2000/svg">
<path d="M9.99842 1.66669C7.49194 1.66669 5.86674 3.34918 3.94468 3.96244C3.16316 4.2118 2.77239 4.33647 2.61425 4.51223C2.45611 4.68798 2.4098 4.94481 2.31719 5.45847C1.32611 10.955 3.49233 16.0367 8.6585 18.0146C9.21357 18.2271 9.49111 18.3334 10.0012 18.3334C10.5112 18.3333 10.7887 18.2271 11.3438 18.0146C16.5096 16.0366 18.6738 10.955 17.6824 5.45846C17.5897 4.94472 17.5434 4.68785 17.3852 4.51209C17.2271 4.33634 16.8363 4.21173 16.0549 3.96251C14.132 3.34931 12.505 1.66669 9.99842 1.66669Z" stroke="#12B76A" stroke-width="1.5" stroke-linecap="round" stroke-linejoin="round"/>
<path d="M7.5 10.8333C7.5 10.8333 8.33333 10.8333 9.16667 12.5C9.16667 12.5 11.8137 8.33333 14.1667 7.5" stroke="#12B76A" stroke-width="1.5" stroke-linecap="round" stroke-linejoin="round"/>
</svg>
