<svg width="21" height="20" viewBox="0 0 21 20" fill="none" xmlns="http://www.w3.org/2000/svg">
<path d="M18.775 15.625V10.625C18.775 10.4592 18.7092 10.3003 18.5919 10.1831C18.4747 10.0658 18.3158 10 18.15 10C17.9842 10 17.8253 10.0658 17.7081 10.1831C17.5909 10.3003 17.525 10.4592 17.525 10.625V14.1164L11.0922 7.68281C11.0341 7.6247 10.9652 7.5786 10.8893 7.54715C10.8135 7.5157 10.7321 7.49951 10.65 7.49951C10.5679 7.49951 10.4865 7.5157 10.4107 7.54715C10.3348 7.5786 10.2659 7.6247 10.2078 7.68281L7.525 10.3664L2.34219 5.18281C2.22492 5.06554 2.06586 4.99965 1.90001 4.99965C1.73415 4.99965 1.57509 5.06554 1.45782 5.18281C1.34054 5.30009 1.27466 5.45915 1.27466 5.625C1.27466 5.79085 1.34054 5.94991 1.45782 6.06719L7.08282 11.6922C7.14086 11.7503 7.20979 11.7964 7.28567 11.8278C7.36154 11.8593 7.44287 11.8755 7.525 11.8755C7.60714 11.8755 7.68847 11.8593 7.76434 11.8278C7.84022 11.7964 7.90915 11.7503 7.96719 11.6922L10.65 9.00859L16.6414 15H13.15C12.9842 15 12.8253 15.0658 12.7081 15.1831C12.5909 15.3003 12.525 15.4592 12.525 15.625C12.525 15.7908 12.5909 15.9497 12.7081 16.0669C12.8253 16.1842 12.9842 16.25 13.15 16.25H18.15C18.3158 16.25 18.4747 16.1842 18.5919 16.0669C18.7092 15.9497 18.775 15.7908 18.775 15.625Z" fill="#ED5B53"/>
</svg>
