<svg width="16" height="16" viewBox="0 0 16 16" fill="none" xmlns="http://www.w3.org/2000/svg">
<path d="M12.7286 5.3323C12.6547 5.3323 12.5919 5.31761 12.5401 5.28823C12.4884 5.25885 12.4478 5.20744 12.4182 5.13399L11.7752 3.63566L10.1567 2.93056C10.0828 2.90118 10.0311 2.86079 10.0015 2.80937C9.97197 2.75796 9.95719 2.69553 9.95719 2.62208C9.95719 2.54864 9.97197 2.4862 10.0015 2.43479C10.0311 2.38338 10.0828 2.34298 10.1567 2.3136L11.7752 1.63054L12.4182 0.198309C12.4478 0.124861 12.4884 0.0734477 12.5401 0.0440686C12.5919 0.0146895 12.6547 0 12.7286 0C12.8025 0 12.8653 0.0146895 12.9171 0.0440686C12.9688 0.0734477 13.0094 0.124861 13.039 0.198309L13.682 1.63054L15.3005 2.3136C15.3744 2.34298 15.4261 2.38338 15.4557 2.43479C15.4852 2.4862 15.5 2.54864 15.5 2.62208C15.5 2.69553 15.4852 2.75796 15.4557 2.80937C15.4261 2.86079 15.3744 2.90118 15.3005 2.93056L13.682 3.63566L13.039 5.13399C13.0094 5.20744 12.9688 5.25885 12.9171 5.28823C12.8653 5.31761 12.8025 5.3323 12.7286 5.3323ZM12.7286 16C12.6695 16 12.6104 15.9853 12.5512 15.9559C12.4921 15.9265 12.4478 15.8751 12.4182 15.8017L11.7752 14.3695L10.1789 13.6864C10.105 13.657 10.0533 13.6166 10.0237 13.5652C9.99414 13.5138 9.97936 13.4514 9.97936 13.3779C9.97936 13.3045 9.99414 13.242 10.0237 13.1906C10.0533 13.1392 10.105 13.0988 10.1789 13.0694L11.7752 12.3864L12.4182 10.866C12.4478 10.7926 12.4884 10.7411 12.5401 10.7118C12.5919 10.6824 12.6547 10.6677 12.7286 10.6677C12.8025 10.6677 12.8653 10.6824 12.9171 10.7118C12.9688 10.7411 13.0094 10.7926 13.039 10.866L13.682 12.3864L15.2783 13.0694C15.3522 13.0988 15.4039 13.1392 15.4335 13.1906C15.463 13.242 15.4778 13.3045 15.4778 13.3779C15.4778 13.4514 15.463 13.5138 15.4335 13.5652C15.4039 13.6166 15.3522 13.657 15.2783 13.6864L13.682 14.3695L13.039 15.8017C13.0094 15.8751 12.9651 15.9265 12.906 15.9559C12.8468 15.9853 12.7877 16 12.7286 16ZM6.02064 13.4204C5.90239 13.4204 5.78784 13.3874 5.67698 13.3213C5.56613 13.2552 5.48114 13.1634 5.42201 13.0459L3.98088 9.98309L0.876911 8.59492C0.758664 8.53617 0.666284 8.4517 0.599771 8.34153C0.533257 8.23136 0.5 8.11752 0.5 8C0.5 7.88248 0.533257 7.76864 0.599771 7.65847C0.666284 7.5483 0.758664 7.46383 0.876911 7.40507L3.98088 6.01691L5.42201 2.97618C5.48114 2.84397 5.56613 2.74482 5.67698 2.67871C5.78784 2.61261 5.90239 2.57956 6.02064 2.57956C6.13888 2.57956 6.25343 2.61261 6.36429 2.67871C6.47515 2.74482 6.56014 2.83663 6.61926 2.95414L8.08256 6.01691L11.1644 7.40507C11.2974 7.46383 11.3972 7.5483 11.4637 7.65847C11.5302 7.76864 11.5634 7.88248 11.5634 8C11.5634 8.11752 11.5302 8.23136 11.4637 8.34153C11.3972 8.4517 11.2974 8.53617 11.1644 8.59492L8.08256 9.98309L6.61926 13.0459C6.56014 13.1781 6.47515 13.2735 6.36429 13.3323C6.25343 13.3911 6.13888 13.4204 6.02064 13.4204Z" fill="url(#paint0_linear_130_59901)"/>
<defs>
<linearGradient id="paint0_linear_130_59901" x1="-6.76258" y1="7.74675" x2="8.69871" y2="22.2417" gradientUnits="userSpaceOnUse">
<stop stop-color="#A1FF8B"/>
<stop offset="1" stop-color="#3FD1FF"/>
</linearGradient>
</defs>
</svg>
