<svg width="22" height="24" viewBox="0 0 22 24" fill="none" xmlns="http://www.w3.org/2000/svg">
<path d="M17.9353 8.08737C17.8269 8.08737 17.7348 8.06583 17.6589 8.02274C17.583 7.97965 17.5234 7.90424 17.48 7.79652L16.537 5.59897L14.1632 4.56482C14.0548 4.52173 13.9789 4.46248 13.9356 4.38708C13.8922 4.31167 13.8706 4.22011 13.8706 4.11238C13.8706 4.00466 13.8922 3.9131 13.9356 3.83769C13.9789 3.76228 14.0548 3.70304 14.1632 3.65995L16.537 2.65812L17.48 0.557516C17.5234 0.449792 17.583 0.374386 17.6589 0.331297C17.7348 0.288207 17.8269 0.266663 17.9353 0.266663C18.0437 0.266663 18.1358 0.288207 18.2117 0.331297C18.2875 0.374386 18.3472 0.449792 18.3905 0.557516L19.3335 2.65812L21.7073 3.65995C21.8157 3.70304 21.8916 3.76228 21.935 3.83769C21.9783 3.9131 22 4.00466 22 4.11238C22 4.22011 21.9783 4.31167 21.935 4.38708C21.8916 4.46248 21.8157 4.52173 21.7073 4.56482L19.3335 5.59897L18.3905 7.79652C18.3472 7.90424 18.2875 7.97965 18.2117 8.02274C18.1358 8.06583 18.0437 8.08737 17.9353 8.08737ZM17.9353 23.7333C17.8486 23.7333 17.7618 23.7118 17.6751 23.6687C17.5884 23.6256 17.5234 23.5502 17.48 23.4425L16.537 21.3419L14.1957 20.34C14.0873 20.297 14.0115 20.2377 13.9681 20.1623C13.9247 20.0869 13.9031 19.9953 13.9031 19.8876C13.9031 19.7799 13.9247 19.6883 13.9681 19.6129C14.0115 19.5375 14.0873 19.4783 14.1957 19.4352L16.537 18.4333L17.48 16.2035C17.5234 16.0957 17.583 16.0203 17.6589 15.9773C17.7348 15.9342 17.8269 15.9126 17.9353 15.9126C18.0437 15.9126 18.1358 15.9342 18.2117 15.9773C18.2875 16.0203 18.3472 16.0957 18.3905 16.2035L19.3335 18.4333L21.6748 19.4352C21.7832 19.4783 21.8591 19.5375 21.9024 19.6129C21.9458 19.6883 21.9675 19.7799 21.9675 19.8876C21.9675 19.9953 21.9458 20.0869 21.9024 20.1623C21.8591 20.2377 21.7832 20.297 21.6748 20.34L19.3335 21.3419L18.3905 23.4425C18.3472 23.5502 18.2821 23.6256 18.1954 23.6687C18.1087 23.7118 18.022 23.7333 17.9353 23.7333ZM8.09693 19.95C7.9235 19.95 7.7555 19.9015 7.59291 19.8045C7.43032 19.7076 7.30567 19.5729 7.21895 19.4006L5.1053 14.9085L0.552803 12.8726C0.379374 12.7864 0.243884 12.6625 0.14633 12.5009C0.0487767 12.3393 0 12.1724 0 12C0 11.8276 0.0487767 11.6607 0.14633 11.4991C0.243884 11.3375 0.379374 11.2136 0.552803 11.1274L5.1053 9.09146L7.21895 4.63172C7.30567 4.43782 7.43032 4.29239 7.59291 4.19544C7.7555 4.09849 7.9235 4.05002 8.09693 4.05002C8.27036 4.05002 8.43837 4.09849 8.60096 4.19544C8.76355 4.29239 8.8882 4.42705 8.97491 4.5994L11.1211 9.09146L15.6411 11.1274C15.8362 11.2136 15.9825 11.3375 16.0801 11.4991C16.1776 11.6607 16.2264 11.8276 16.2264 12C16.2264 12.1724 16.1776 12.3393 16.0801 12.5009C15.9825 12.6625 15.8362 12.7864 15.6411 12.8726L11.1211 14.9085L8.97491 19.4006C8.8882 19.5945 8.76355 19.7345 8.60096 19.8207C8.43837 19.9069 8.27036 19.95 8.09693 19.95Z" fill="url(#paint0_linear_130_58673)"/>
<defs>
<linearGradient id="paint0_linear_130_58673" x1="8.65289" y1="34.7015" x2="33.0712" y2="16.2055" gradientUnits="userSpaceOnUse">
<stop stop-color="#9358F7"/>
<stop offset="0.259732" stop-color="#7B78F2"/>
<stop offset="0.500607" stop-color="#6197EE"/>
<stop offset="0.766547" stop-color="#45CBE9"/>
<stop offset="1" stop-color="#10D7E2"/>
</linearGradient>
</defs>
</svg>
