<svg width="20" height="20" viewBox="0 0 20 20" fill="none" xmlns="http://www.w3.org/2000/svg">
<path d="M13.3333 11.6667C13.3333 12.357 13.8929 12.9167 14.5833 12.9167C15.2736 12.9167 15.8333 12.357 15.8333 11.6667C15.8333 10.9763 15.2736 10.4167 14.5833 10.4167C13.8929 10.4167 13.3333 10.9763 13.3333 11.6667Z" stroke="#898989" stroke-width="1.5"/>
<path d="M8.33329 5.83333H13.3333C15.6903 5.83333 16.8688 5.83333 17.6011 6.56557C18.3333 7.2978 18.3333 8.47631 18.3333 10.8333V12.5C18.3333 14.857 18.3333 16.0355 17.6011 16.7678C16.8688 17.5 15.6903 17.5 13.3333 17.5H8.33329C5.1906 17.5 3.61925 17.5 2.64294 16.5237C1.66663 15.5474 1.66663 13.976 1.66663 10.8333V9.16667C1.66663 6.02397 1.66663 4.45262 2.64294 3.47631C3.61925 2.5 5.1906 2.5 8.33329 2.5H11.6666C12.4416 2.5 12.8291 2.5 13.147 2.58519C14.0097 2.81635 14.6836 3.49022 14.9148 4.35295C15 4.67087 15 5.05836 15 5.83333" stroke="#898989" stroke-width="1.5" stroke-linecap="round"/>
</svg>
